<svg xmlns="http://www.w3.org/2000/svg" viewBox="0 0 64 64">
  <!-- solid dark backing -->
  <circle cx="32" cy="32" r="31.5" fill="#0c0906" stroke="#4a3418" stroke-width="1.5"/>

  <!-- cog teeth, flat color -->
  <path d="M 56.31 26.16 L 63.60 24.41 L 63.60 39.59 L 56.31 37.84 Z M 53.32 45.06 L 59.71 48.98 L 48.98 59.71 L 45.06 53.32 Z M 37.84 56.31 L 39.59 63.60 L 24.41 63.60 L 26.16 56.31 Z M 18.94 53.32 L 15.02 59.71 L 4.29 48.98 L 10.68 45.06 Z M 7.69 37.84 L 0.40 39.59 L 0.40 24.41 L 7.69 26.16 Z M 10.68 18.94 L 4.29 15.02 L 15.02 4.29 L 18.94 10.68 Z M 26.16 7.69 L 24.41 0.40 L 39.59 0.40 L 37.84 7.69 Z M 45.06 10.68 L 48.98 4.29 L 59.71 15.02 L 53.32 18.94 Z" fill="#9a7530"/>

  <!-- inner ring -->
  <circle cx="32" cy="32" r="25" fill="#0c0906" stroke="#9a7530" stroke-width="2"/>

  <!-- monogram R, flat bold gold -->
  <text x="32" y="42.5" text-anchor="middle"
        font-family="Arial, Helvetica, sans-serif"
        font-weight="900"
        font-size="30"
        fill="#f0c060">R</text>

  <!-- imperial red accent underline -->
  <rect x="19" y="45.5" width="26" height="3" rx="1.5" fill="#c81818"/>
</svg>